<?xml version="1.0" encoding="utf-8"?>
<!-- Generator: Adobe Illustrator 19.0.0, SVG Export Plug-In . SVG Version: 6.00 Build 0)  -->
<svg version="1.1" id="Layer_1" xmlns="http://www.w3.org/2000/svg" xmlns:xlink="http://www.w3.org/1999/xlink" x="0px" y="0px"
	 viewBox="0 0 47.1 35.7" style="enable-background:new 0 0 47.1 35.7;" xml:space="preserve">
<style type="text/css">
	
		.st0{clip-path:url(#SVGID_2_);fill:none;stroke:#49504F;stroke-width:1.5;stroke-linecap:round;stroke-linejoin:round;stroke-miterlimit:10;}
</style>
<g>
	<defs>
		<rect id="SVGID_1_" y="0" width="47.1" height="35.7"/>
	</defs>
	<clipPath id="SVGID_2_">
		<use xlink:href="#SVGID_1_"  style="overflow:visible;"/>
	</clipPath>
	<path class="st0" d="M6.4,35c-0.5,0-2.1-2.6-2.1-3C16.8,22.3,14.8,20.3,14.9,20c0.1-0.3-4.1,1.1-6.5,0.5C2.8,19-0.4,13.4,1.1,8.1
		c1.3-4.3,5.4-7.4,10.1-7.4c0.9,0,1.9,0.1,2.8,0.4c3.7,1,6.4,3.9,7.7,8.2c1.2,3.9,1.2,8.6-0.1,13C17.9,32.3,6.8,35,6.4,35z"/>
	<path class="st0" d="M30.1,35c-0.5,0-2.1-2.6-2.1-3C40.5,22.3,38.6,20.3,38.6,20c0.1-0.3-4.1,1.1-6.5,0.5
		c-5.6-1.5-8.8-7.1-7.2-12.4c1.3-4.3,5.4-7.4,10.1-7.4c1,0,1.9,0.1,2.8,0.4c3.7,1,6.4,3.9,7.7,8.2c1.2,3.9,1.2,8.6-0.1,13
		C41.6,32.3,30.6,35,30.1,35z"/>
</g>
</svg>
